<?xml version="1.0" standalone="no"?>
<!DOCTYPE svg PUBLIC "-//W3C//DTD SVG 20010904//EN"
 "http://www.w3.org/TR/2001/REC-SVG-20010904/DTD/svg10.dtd">
<svg version="1.0" xmlns="http://www.w3.org/2000/svg"
 width="1024.000000pt" height="1024.000000pt" viewBox="0 0 1024.000000 1024.000000"
 preserveAspectRatio="xMidYMid meet">

<g transform="translate(0.000000,1024.000000) scale(0.100000,-0.100000)"
fill="#000000" stroke="none">
<path d="M7183 8157 c-95 -20 -204 -81 -289 -160 -84 -78 -193 -233 -254 -361
-74 -154 -145 -404 -166 -579 l-7 -57 -45 4 -45 3 -21 84 c-41 157 -129 310
-209 364 -57 39 -163 66 -284 72 -98 5 -120 3 -182 -17 l-70 -22 -42 36 c-62
53 -124 70 -254 71 -132 0 -187 -16 -276 -81 l-60 -45 -32 19 c-52 32 -131 45
-226 39 -114 -7 -186 -35 -256 -99 l-56 -51 -42 13 c-55 17 -156 15 -222 -5
-66 -19 -144 -76 -183 -135 -27 -39 -40 -69 -76 -165 -6 -15 -14 3 -31 70 -36
140 -81 259 -151 395 -133 261 -275 390 -482 436 -64 14 -105 16 -257 10 -99
-4 -205 -11 -235 -16 -30 -5 -172 -9 -315 -9 -143 -1 -291 -6 -329 -11 -189
-28 -367 -153 -499 -351 l-57 -86 -66 -11 c-91 -15 -144 -44 -208 -113 -69
-74 -123 -170 -165 -293 l-32 -93 -120 -6 c-103 -4 -128 -9 -174 -32 -63 -30
-104 -75 -145 -160 -51 -103 -64 -174 -64 -330 0 -123 4 -151 28 -230 33 -111
75 -183 143 -244 72 -67 139 -85 259 -71 115 13 114 13 114 -6 0 -30 86 -198
129 -252 50 -63 122 -118 173 -132 30 -9 39 -17 49 -48 52 -163 220 -385 361
-478 142 -95 94 -89 753 -89 644 0 665 2 805 68 127 61 296 265 357 432 10 25
20 45 23 45 3 0 13 -29 22 -65 22 -81 87 -213 141 -285 l42 -55 27 -215 c47
-362 58 -462 58 -547 0 -134 -28 -344 -76 -572 -26 -119 -56 -265 -68 -324
l-23 -108 -170 175 c-176 179 -274 292 -377 431 -126 171 -138 187 -134 191 3
2 25 -21 51 -50 26 -30 97 -100 159 -157 367 -333 440 -395 370 -314 -143 165
-346 414 -521 640 -265 340 -268 345 -114 185 134 -139 299 -293 560 -523 67
-59 124 -107 128 -107 3 0 -27 39 -67 87 -107 127 -358 463 -358 478 0 2 41
-36 92 -86 50 -50 141 -128 202 -174 61 -46 123 -93 138 -105 71 -55 34 -2
-102 145 -90 97 -251 293 -275 335 -5 8 27 -17 71 -55 142 -127 379 -303 391
-292 2 3 -31 45 -74 94 -138 158 -309 356 -364 423 -53 64 -53 63 77 -48 104
-90 270 -217 331 -255 12 -8 7 205 -13 482 l-16 214 -48 71 c-26 39 -54 83
-61 99 -12 26 -29 37 -29 18 0 -6 -28 -47 -62 -91 -98 -131 -226 -225 -372
-273 -53 -17 -95 -20 -338 -24 -153 -3 -278 -7 -278 -9 0 -3 19 -49 41 -102
122 -287 318 -620 532 -901 311 -410 775 -865 1222 -1200 236 -177 617 -431
645 -431 19 0 347 195 531 315 865 567 1532 1297 1907 2085 60 127 102 226
102 243 0 4 -67 7 -149 7 -162 0 -285 17 -378 52 -200 74 -379 252 -503 498
-38 77 -103 236 -115 286 -5 17 -306 -283 -388 -386 -42 -52 -116 -135 -166
-185 l-91 -90 0 -57 c0 -146 96 -648 124 -648 30 0 313 193 496 339 78 62 -77
-104 -301 -323 -110 -108 -194 -196 -187 -196 21 0 185 98 317 190 182 127
169 118 151 95 -48 -66 -128 -157 -244 -279 -72 -77 -123 -137 -114 -133 37
13 248 153 348 230 122 93 205 164 307 261 40 38 73 66 73 62 0 -4 -63 -77
-139 -164 -132 -149 -390 -410 -495 -500 -27 -23 -42 -42 -34 -42 18 0 247
133 335 196 37 26 114 85 170 131 56 46 105 83 108 83 16 0 -246 -299 -419
-479 -84 -87 -78 -85 64 18 168 122 476 389 689 596 79 77 140 133 136 125
-37 -63 -641 -763 -814 -942 -57 -60 -100 -108 -96 -108 12 0 222 156 360 269
72 58 188 162 259 231 71 69 126 118 121 110 -21 -37 -159 -217 -259 -338
-115 -137 -438 -462 -460 -462 -7 0 -62 73 -122 162 -177 263 -322 572 -394
838 -51 190 -100 525 -100 687 l0 68 106 100 c59 54 176 176 260 270 85 93
203 223 263 287 98 105 110 122 117 164 7 51 0 198 -11 227 -5 12 -2 17 11 17
16 0 23 -20 47 -133 108 -500 350 -864 647 -970 114 -40 146 -42 745 -42 668
0 662 -1 808 87 107 64 175 131 256 253 79 119 129 230 227 504 41 112 75 206
77 208 3 2 37 -2 77 -8 126 -21 258 24 319 110 118 165 134 567 32 786 -37 79
-68 115 -133 150 -50 28 -60 30 -173 31 -66 1 -125 2 -130 3 -6 0 -17 29 -24
64 -61 296 -179 590 -308 761 -77 103 -152 166 -253 215 -74 35 -78 36 -210
38 -74 2 -180 8 -235 14 -62 6 -168 8 -280 4 -227 -8 -196 -8 -485 -1 -183 4
-261 2 -307 -7z m503 -90 c2 -2 -26 -23 -62 -46 -83 -55 -144 -136 -224 -296
-251 -507 -295 -1190 -120 -1863 22 -85 45 -163 51 -175 7 -14 8 -18 1 -12 -6
6 -24 44 -40 85 -17 41 -48 118 -69 170 -38 90 -62 172 -46 156 4 -4 13 -26
19 -49 19 -67 46 -138 51 -134 2 3 -1 26 -7 53 -27 119 -69 386 -71 448 -1 23
-4 31 -6 19 -5 -26 -31 -31 -39 -9 -3 8 -9 63 -13 123 l-8 108 -2 -95 c-1
-103 36 -401 69 -561 47 -221 149 -477 256 -639 63 -97 183 -223 259 -273 l60
-39 -210 5 c-274 7 -355 30 -474 134 -197 173 -356 534 -437 993 -32 177 -43
513 -25 739 35 437 182 832 386 1036 84 85 149 115 267 125 85 7 427 5 434 -3z
m569 3 c33 -4 54 -8 46 -9 -21 -2 -112 -78 -150 -124 -148 -184 -271 -488
-309 -765 -11 -77 1 -69 17 13 18 96 74 300 79 287 2 -7 -6 -52 -17 -102 -86
-363 -102 -919 -40 -1337 63 -425 265 -821 484 -949 l50 -29 -50 -3 c-27 -2
-129 -2 -225 0 -172 3 -176 4 -234 33 -382 195 -644 1014 -575 1798 43 496
173 862 382 1078 78 81 127 103 242 110 142 8 231 8 300 -1z m365 -32 c134
-41 263 -174 364 -375 52 -104 178 -480 175 -525 0 -13 -28 58 -55 145 -9 26
-19 45 -24 42 -12 -8 -67 84 -125 210 -60 130 -100 188 -179 263 -166 157
-350 123 -492 -89 -179 -269 -283 -780 -255 -1243 18 -290 56 -510 122 -711
40 -119 125 -295 175 -361 64 -83 193 -142 279 -128 101 16 200 102 269 233
31 59 41 71 62 71 13 0 40 7 59 14 32 14 35 13 35 -1 0 -23 -94 -196 -146
-270 -92 -129 -212 -206 -324 -207 -57 -1 -74 4 -136 37 -197 105 -362 373
-453 735 -109 434 -120 989 -26 1407 124 553 383 842 675 753z m-5650 -132 c0
-3 -12 -11 -27 -18 -16 -8 -41 -23 -58 -33 -24 -16 -27 -16 -17 -3 11 14 9 17
-17 23 -16 3 -74 1 -128 -4 -145 -16 -234 -63 -313 -166 -14 -18 -13 -18 15 1
35 24 92 40 195 54 41 5 105 18 143 29 37 11 67 18 67 16 0 -2 -30 -46 -66
-97 -187 -263 -285 -599 -310 -1058 -12 -231 32 -602 97 -823 116 -388 314
-676 526 -762 l55 -23 -103 -7 c-57 -4 -154 -5 -214 -3 -101 3 -116 6 -178 36
-135 67 -263 220 -373 447 -159 329 -228 652 -228 1070 -1 244 8 332 50 525
47 211 107 358 209 511 114 171 215 243 363 260 246 26 312 32 312 25z m-580
-42 c-158 -90 -284 -269 -366 -523 -245 -751 -83 -1708 372 -2200 58 -63 72
-82 54 -76 -164 50 -390 439 -498 860 -61 236 -74 337 -81 630 -6 270 -6 270
-14 135 -9 -156 3 -363 33 -559 62 -410 242 -823 437 -1001 l52 -48 -29 -5
c-16 -4 -77 -2 -136 3 -59 5 -110 8 -112 5 -14 -14 104 -29 238 -31 185 -3
170 -2 170 -14 0 -13 -254 -13 -332 0 -119 19 -288 152 -392 308 -177 267
-292 604 -336 983 -16 137 -8 523 13 634 46 242 129 455 245 628 85 127 232
243 332 261 31 5 29 4 -14 -14 -41 -17 -172 -109 -164 -115 2 -1 59 1 128 5
69 4 134 6 145 4 13 -2 36 12 65 40 69 67 147 107 225 115 6 0 -10 -11 -35
-25z m930 -15 c173 -91 343 -356 435 -676 20 -69 65 -264 65 -280 0 -12 -31 1
-44 20 -10 14 -14 16 -10 5 4 -10 2 -18 -3 -18 -6 0 -18 42 -28 93 -49 259
-185 538 -325 670 -105 100 -190 118 -308 66 -66 -29 -117 -73 -165 -147 -172
-260 -247 -572 -247 -1027 0 -332 29 -529 115 -790 48 -147 77 -209 145 -311
56 -82 101 -124 173 -161 43 -22 66 -27 132 -27 70 -1 86 3 133 29 115 63 210
213 273 433 18 62 34 110 36 108 6 -6 -17 -174 -34 -246 -22 -91 -57 -172
-114 -261 -82 -128 -177 -198 -289 -214 -62 -9 -159 24 -234 78 -151 107 -323
418 -404 732 -118 454 -121 909 -8 1298 80 272 216 502 356 598 80 56 123 69
210 66 63 -3 86 -9 140 -38z m-1207 14 c-7 -2 -19 -2 -25 0 -7 3 -2 5 12 5 14
0 19 -2 13 -5z m6517 -133 c55 -28 98 -76 149 -165 35 -62 41 -79 30 -86 -24
-15 -28 -11 -58 56 -17 36 -40 79 -51 96 -12 16 -23 36 -24 44 -3 23 -18 34
-77 55 -32 11 -45 19 -31 20 12 0 40 -9 62 -20z m-190 -14 c0 -2 -8 -10 -17
-17 -16 -13 -17 -12 -4 4 13 16 21 21 21 13z m-40 -29 c0 -2 -10 -12 -22 -23
l-23 -19 19 23 c18 21 26 27 26 19z m30 -10 c0 -2 -15 -16 -32 -33 l-33 -29
29 33 c28 30 36 37 36 29z m-70 -41 c0 -2 -8 -10 -17 -17 -16 -13 -17 -12 -4
4 13 16 21 21 21 13z m-5084 -25 c156 -71 307 -339 350 -621 17 -118 18 -110
-6 -110 -14 0 -21 9 -25 38 -29 173 -49 244 -105 372 -74 169 -166 278 -254
301 -28 8 -28 8 8 4 59 -7 30 13 -34 24 -51 8 -52 9 -15 10 22 0 59 -8 81 -18z
m-193 -30 c-21 -15 -61 -53 -87 -82 -27 -30 -39 -40 -27 -23 25 38 128 134
143 134 6 0 -7 -13 -29 -29z m104 13 c-3 -3 -12 -4 -19 -1 -8 3 -5 6 6 6 11 1
17 -2 13 -5z m5102 -71 c-40 -79 -109 -271 -109 -301 0 -9 16 29 35 85 19 57
44 120 55 140 12 21 18 29 14 18 -82 -228 -108 -330 -148 -580 l-15 -90 5 95
c9 157 33 315 60 402 40 127 121 308 138 308 2 0 -14 -35 -35 -77z m-5140 63
c-2 -2 -15 -9 -29 -15 -24 -11 -24 -11 -6 3 16 13 49 24 35 12z m5175 -46
c-10 -16 -20 -28 -22 -26 -4 5 28 56 35 56 2 0 -4 -13 -13 -30z m-5287 -40
c-70 -75 -121 -166 -164 -290 -18 -52 -33 -87 -33 -78 0 30 57 176 96 246 32
56 136 182 152 182 2 0 -21 -27 -51 -60z m2414 -22 c20 -9 45 -28 57 -43 36
-45 29 -86 -35 -200 l-56 -103 -38 5 c-74 10 -131 -6 -170 -47 -50 -52 -71
-120 -70 -225 0 -66 5 -97 25 -146 14 -35 24 -64 23 -65 -1 -2 -48 -6 -105
-10 -101 -7 -102 -7 -112 17 -11 26 -12 30 11 -161 5 -47 17 -101 27 -120 17
-35 73 -80 100 -80 8 0 0 10 -19 23 -18 12 -40 35 -49 50 -13 24 -13 29 0 37
28 18 85 30 145 30 86 0 102 -7 115 -46 15 -44 2 -66 -55 -94 -58 -28 -141
-24 -185 8 -35 26 -48 28 -29 5 9 -11 10 -14 2 -9 -38 22 -98 179 -129 336
-24 125 -15 344 19 460 25 84 65 168 90 189 7 6 55 17 107 25 114 19 131 31
31 23 -76 -6 -101 3 -101 36 0 19 82 94 118 108 70 28 212 26 283 -3z m554
-55 c62 -20 112 -53 137 -90 37 -54 96 -179 112 -238 10 -33 19 -68 22 -77 4
-14 -1 -18 -25 -18 -27 0 -31 4 -42 43 -10 39 -27 84 -67 181 l-16 38 -18 -82
c-18 -86 -38 -127 -65 -137 -9 -3 -57 -1 -107 6 -50 6 -147 18 -216 27 -145
17 -196 29 -203 47 -8 21 62 154 91 173 30 20 122 25 202 11 42 -7 41 -6 -20
18 -36 13 -76 25 -89 25 -20 0 -22 3 -16 28 3 15 12 33 19 40 33 33 206 36
301 5z m-3070 -13 c-9 -16 -18 -30 -21 -30 -2 0 2 14 11 30 9 17 18 30 21 30
2 0 -2 -13 -11 -30z m1938 4 c54 -26 58 -48 26 -119 -72 -159 -114 -368 -106
-521 6 -107 30 -251 52 -315 14 -38 13 -39 -5 -29 -26 14 -104 12 -173 -4 -77
-18 -86 -30 -17 -22 148 18 160 18 175 6 9 -8 13 -21 9 -36 -5 -20 -3 -23 11
-18 11 5 15 15 12 30 -5 27 8 24 15 -4 10 -36 -11 -63 -68 -89 -47 -21 -66
-25 -111 -20 -70 7 -133 39 -159 80 -36 55 -93 194 -116 280 -32 122 -32 347
1 472 31 119 43 141 104 198 54 50 52 53 -23 31 -24 -7 -24 -6 5 18 40 34 110
70 154 79 53 12 175 2 214 -17z m-3383 7 c0 -5 -13 -12 -29 -16 -16 -3 -47
-22 -70 -41 -40 -35 -109 -124 -95 -124 14 0 129 44 143 54 12 9 13 7 7 -9
-181 -455 -167 -1067 33 -1554 l30 -71 -32 0 c-65 1 -109 18 -153 61 -157 154
-261 606 -225 979 35 359 177 659 336 712 28 9 51 17 53 17 1 1 2 -3 2 -8z
m7184 -36 c32 -14 39 -14 66 0 38 20 103 19 146 -1 70 -33 140 -140 178 -272
l15 -53 -26 3 c-21 2 -28 11 -38 43 -29 97 -82 178 -135 205 -49 25 -71 25
-121 0 -105 -54 -179 -238 -209 -517 -16 -143 -8 -478 13 -593 21 -109 61
-250 92 -316 32 -71 110 -150 156 -159 80 -15 157 60 203 197 17 48 24 57 48
60 15 3 28 1 28 -3 0 -26 -68 -175 -99 -215 -53 -70 -103 -97 -166 -88 -27 4
-85 6 -127 5 -90 -2 -120 10 -170 69 -126 147 -230 592 -215 921 11 236 54
425 132 579 35 69 71 109 120 134 38 20 63 20 109 1z m46 6 c0 -4 -11 -6 -25
-3 -14 2 -25 6 -25 8 0 2 11 4 25 4 14 0 25 -4 25 -9z m-365 -60 c-90 -143
-146 -412 -163 -776 -7 -157 -7 -158 -13 -75 -11 130 -10 247 0 231 6 -9 7 8
4 46 -12 131 37 383 97 503 40 80 46 77 9 -5 -16 -35 -29 -70 -29 -77 1 -7 13
14 29 47 15 33 39 79 54 101 14 23 23 45 19 50 -4 4 -1 4 5 0 9 -5 6 -17 -12
-45z m-5105 4 c33 -19 21 -19 -21 0 -19 8 -27 14 -19 14 8 0 26 -6 40 -14z
m-200 -47 c-18 -18 -50 -60 -72 -93 -21 -33 -38 -57 -38 -52 0 16 83 138 107
157 39 31 41 24 3 -12z m1296 -9 c30 -28 29 -42 -6 -189 -25 -101 -32 -286
-17 -417 l8 -61 -73 -11 c-40 -6 -100 -15 -132 -21 -32 -5 -63 -7 -67 -4 -24
14 39 -185 77 -243 19 -30 88 -65 144 -74 l45 -6 -40 -2 c-55 -1 -134 38 -172
85 -76 97 -135 248 -158 403 -18 126 -15 204 16 319 32 121 70 178 146 216 84
42 187 44 229 5z m4561 -10 c34 -33 68 -94 87 -157 l15 -53 -26 3 c-20 2 -29
12 -39 41 -19 55 -49 92 -90 112 l-36 17 -38 -37 c-21 -21 -53 -64 -70 -96
-17 -33 -33 -59 -35 -59 -5 0 9 40 28 78 19 37 32 90 18 77 -19 -19 -61 -148
-56 -169 5 -17 4 -18 -4 -6 -9 13 -11 12 -11 -4 0 -11 -3 -17 -6 -13 -9 9 34
145 64 200 40 74 76 100 130 94 27 -3 53 -14 69 -28z m-6046 -16 c-12 -20 -14
-14 -5 12 4 9 9 14 11 11 3 -2 0 -13 -6 -23z m169 -25 c-57 -76 -88 -137 -111
-220 -18 -68 -19 -69 -14 -23 8 85 14 114 24 133 8 13 10 14 11 2 0 -8 12 5
27 30 26 45 91 130 99 130 2 0 -14 -23 -36 -52z m-183 -20 c-3 -8 -6 -5 -6 6
-1 11 2 17 5 13 3 -3 4 -12 1 -19z m6320 -110 c-3 -8 -6 -5 -6 6 -1 11 2 17 5
13 3 -3 4 -12 1 -19z m-6333 -32 c-3 -21 -8 -35 -11 -32 -2 2 -1 20 3 40 3 21
8 35 11 32 2 -2 1 -20 -3 -40z m2620 -1 c63 -8 148 -25 188 -38 67 -21 73 -25
69 -48 -8 -55 -66 -141 -113 -165 -26 -14 -40 -14 -92 -4 -131 25 -196 109
-160 205 6 15 4 16 -14 6 -51 -27 -35 -109 34 -169 75 -67 210 -88 272 -43 44
31 92 116 92 163 0 35 2 37 28 33 15 -3 110 -14 212 -26 102 -11 196 -26 210
-32 35 -17 56 -83 91 -286 40 -237 75 -405 111 -531 39 -138 42 -217 8 -285
-42 -84 -148 -181 -283 -260 -43 -25 -35 -15 70 91 136 136 176 201 175 289 0
28 -19 122 -41 210 -23 88 -56 250 -75 360 -19 110 -41 214 -50 230 l-16 30 0
-28 c0 -41 -94 -173 -153 -215 -26 -19 -46 -36 -44 -38 8 -9 115 34 138 54 22
21 24 21 31 5 3 -10 7 -38 7 -62 1 -64 38 -269 72 -401 16 -63 29 -118 29
-121 0 -19 -82 -90 -109 -95 -36 -7 -38 -12 -13 -30 16 -13 16 -15 -6 -34 -49
-41 -139 -38 -192 6 -24 21 -29 22 -23 7 6 -17 5 -16 -17 2 l-24 20 21 -30
c39 -56 68 -76 112 -78 22 -1 41 -2 41 -4 0 -1 -20 -14 -44 -28 -35 -20 -59
-26 -119 -28 -41 -1 -73 -5 -70 -10 2 -4 22 -17 45 -28 22 -11 38 -22 36 -24
-2 -2 -37 -9 -78 -15 -129 -18 -140 -21 -140 -30 0 -5 17 -12 37 -16 l38 -7
-55 -19 c-42 -15 -73 -18 -130 -15 -90 6 -281 65 -316 98 -13 12 -24 18 -24
12 0 -10 41 -53 50 -51 3 1 30 -7 60 -17 32 -11 48 -21 38 -23 -21 -4 -24 -32
-5 -51 10 -10 6 -10 -18 -1 -16 6 -50 30 -74 53 -33 31 -39 34 -22 12 27 -36
97 -85 122 -85 10 0 21 -4 24 -10 17 -27 -180 12 -232 46 -28 18 -29 7 -3 -26
11 -14 20 -28 20 -32 0 -22 -142 7 -177 35 -22 17 -14 -2 28 -64 23 -33 39
-62 36 -65 -3 -3 -39 6 -80 20 -42 14 -84 26 -94 25 -10 0 4 -7 31 -15 26 -9
45 -18 42 -21 -3 -4 12 -17 34 -30 42 -25 54 -49 20 -38 -11 4 -20 2 -20 -4 0
-6 19 -15 41 -21 23 -6 49 -15 58 -20 9 -5 34 -16 56 -24 l40 -16 -37 6 c-27
4 -38 3 -38 -6 0 -10 -20 -12 -85 -7 -74 5 -96 12 -168 48 -57 30 -102 63
-150 111 -37 37 -70 68 -74 68 -8 0 5 -133 17 -162 7 -17 8 -8 3 32 -5 47 -4
53 8 43 8 -6 23 -37 33 -67 11 -31 28 -64 39 -73 19 -18 20 -17 7 7 -6 14 9 2
34 -27 61 -68 158 -132 298 -195 62 -28 117 -54 121 -58 31 -28 -221 33 -296
72 -58 29 -176 109 -212 144 -122 115 -173 297 -126 447 59 193 192 357 351
435 128 63 422 146 511 145 74 -1 86 -9 119 -79 30 -62 141 -194 163 -194 6 0
-1 12 -15 28 -31 32 -108 151 -108 165 0 6 10 1 23 -10 23 -21 270 -193 297
-207 8 -5 -56 62 -142 147 -87 85 -158 160 -158 166 0 6 -7 11 -15 11 -8 0
-15 5 -15 11 0 12 29 5 82 -22 33 -17 160 -39 148 -27 -3 3 -40 34 -83 68 -43
34 -77 63 -75 65 1 1 28 -2 59 -8 48 -8 66 -7 127 12 38 11 76 21 84 21 8 0
23 7 34 15 18 15 18 15 -6 10 -31 -7 -217 28 -232 43 -8 8 -3 13 18 17 16 4
65 19 109 33 l80 27 -135 7 c-315 19 -502 139 -556 360 -16 64 -16 69 5 137
21 70 47 101 83 101 9 0 69 -7 132 -15z m-2657 -47 c-3 -8 -6 -5 -6 6 -1 11 2
17 5 13 3 -3 4 -12 1 -19z m20 -30 c-3 -7 -5 -2 -5 12 0 14 2 19 5 13 2 -7 2
-19 0 -25z m-30 -30 c-3 -8 -6 -5 -6 6 -1 11 2 17 5 13 3 -3 4 -12 1 -19z
m6741 8 c42 -22 99 -86 121 -137 57 -128 72 -369 32 -512 -47 -172 -105 -227
-237 -227 -66 0 -68 1 -105 41 -76 82 -102 209 -88 421 12 189 30 247 107 345
37 47 38 50 16 45 -28 -5 -32 12 -6 27 25 15 129 13 160 -3z m-6721 -33 c-3
-10 -5 -4 -5 12 0 17 2 24 5 18 2 -7 2 -21 0 -30z m6497 25 c-4 -7 -15 -24
-24 -38 -32 -48 -90 -273 -90 -351 l0 -39 -50 2 -50 2 0 39 c0 54 19 173 36
220 8 22 33 60 55 85 44 47 43 51 -8 66 -17 6 -29 0 -50 -21 -16 -17 -24 -21
-20 -10 10 28 -19 20 -47 -14 -36 -42 -33 -53 10 -46 35 6 36 5 29 -21 -34
-132 -46 -306 -30 -430 10 -84 28 -167 38 -179 12 -17 -1 -17 -17 0 -14 14
-32 126 -42 260 l-6 87 -39 -2 c-37 -3 -39 -5 -40 -38 l-1 -35 -11 44 c-7 31
-7 68 1 130 13 93 45 169 107 254 l35 47 111 0 c85 0 109 -3 103 -12z m-329
-34 c-14 -20 -25 -41 -25 -46 0 -5 -5 -6 -11 -2 -8 4 -8 9 0 17 16 16 13 24
-11 30 -31 9 -82 -16 -107 -52 -18 -25 -19 -30 -5 -24 13 5 15 2 10 -14 -4
-12 -1 -25 8 -32 15 -13 19 -9 41 34 9 16 65 36 65 22 0 -2 -10 -39 -22 -83
-28 -104 -29 -334 -1 -466 20 -93 14 -108 -12 -29 -13 41 -34 219 -35 299 0
20 -5 22 -50 22 l-50 0 0 48 c0 26 7 74 15 105 17 67 19 89 5 67 -5 -8 -15
-42 -22 -74 -8 -44 -13 -55 -18 -40 -11 28 -24 -47 -16 -89 5 -27 4 -29 -5
-13 -28 46 11 226 64 297 32 45 64 58 139 59 l67 0 -24 -36z m-5691 6 c7 -7 2
-8 -19 -1 -17 5 -39 12 -50 15 -11 3 -2 3 19 1 22 -2 44 -9 50 -15z m-2239
-21 c-3 -8 -15 -19 -27 -24 -23 -10 -61 -78 -73 -130 -6 -25 -5 -28 6 -17 7 6
26 12 41 12 28 0 28 -1 21 -42 -5 -24 -8 -126 -7 -228 0 -149 5 -204 22 -285
22 -101 23 -139 2 -68 -14 47 -39 222 -41 283 l-1 45 -10 -35 c-7 -25 -7 -53
2 -98 13 -65 7 -89 -13 -61 -9 11 -12 68 -10 183 1 91 -3 164 -7 161 -5 -3
-11 14 -13 37 -2 24 -4 2 -5 -49 l-2 -92 -42 -3 -43 -3 0 -76 c1 -62 5 -80 23
-104 12 -15 22 -33 22 -39 0 -6 -9 0 -20 14 -11 14 -20 22 -20 19 0 -18 35
-118 50 -139 9 -14 23 -36 29 -50 11 -23 10 -22 -14 5 -24 27 -26 27 -15 5 7
-14 20 -33 28 -43 14 -16 14 -17 0 -12 -27 11 -66 97 -84 190 -23 117 -23 324
0 414 15 58 66 167 101 214 7 10 32 21 56 26 51 9 51 9 44 -10z m2105 6 c0 -2
-10 -9 -22 -15 -22 -11 -22 -10 -4 4 21 17 26 19 26 11z m3303 -5 c4 0 7 -7 7
-16 0 -13 -7 -15 -37 -10 -21 3 -59 7 -85 8 -34 1 -48 6 -48 16 0 12 14 13 78
9 42 -4 80 -6 85 -7z m-5541 -10 c-68 -16 -152 -95 -152 -142 0 -14 6 -16 28
-12 l29 6 -18 -69 c-10 -37 -18 -94 -18 -126 l-1 -59 -40 3 c-21 2 -42 0 -45
-3 -11 -11 13 -172 36 -239 31 -92 55 -135 102 -187 39 -42 36 -49 -5 -14 -10
8 -18 11 -18 7 0 -19 -73 63 -96 107 -79 155 -85 438 -13 581 61 120 107 157
194 156 46 -1 47 -2 17 -9z m1865 -12 c-3 -8 -6 -5 -6 6 -1 11 2 17 5 13 3 -3
4 -12 1 -19z m20 -20 c-3 -7 -5 -2 -5 12 0 14 2 19 5 13 2 -7 2 -19 0 -25z
m258 -53 c-18 -36 -38 -93 -46 -127 -26 -118 -14 -340 26 -463 5 -16 5 -17 -4
-4 -14 22 -71 195 -72 222 -1 15 -4 11 -9 -13 -5 -19 -6 -38 -4 -42 3 -4 7
-27 8 -50 2 -24 7 -59 10 -78 6 -32 5 -31 -13 11 -28 66 -44 196 -39 310 4 81
10 107 31 150 28 53 37 82 12 39 -16 -29 -20 -19 -4 11 5 11 14 17 19 14 5 -3
11 -1 15 5 3 5 16 10 28 10 14 0 30 13 45 35 34 54 33 42 -3 -30z m3389 36 c3
-4 -6 -6 -19 -3 -14 2 -25 6 -25 8 0 8 39 4 44 -5z m-3677 -43 c-3 -7 -5 -2
-5 12 0 14 2 19 5 13 2 -7 2 -19 0 -25z m20 -25 c-3 -10 -5 -4 -5 12 0 17 2
24 5 18 2 -7 2 -21 0 -30z m3603 17 c37 0 60 -24 60 -61 0 -34 -19 -40 -21 -6
-1 17 -2 18 -6 4 -3 -10 2 -29 11 -42 20 -30 21 -71 2 -82 -15 -8 -16 -10 -16
-45 0 -18 -2 -20 -9 -8 -6 8 -8 17 -7 20 2 3 -5 13 -16 23 -10 9 -18 13 -18 8
0 -6 5 -13 10 -16 6 -3 10 -11 10 -16 0 -5 -9 -1 -21 10 -15 14 -23 38 -29 83
-8 69 -6 80 13 55 8 -11 17 -14 25 -8 18 11 11 46 -8 47 -8 1 -21 2 -27 3 -7
0 -13 10 -13 22 0 15 4 19 16 15 9 -3 28 -6 44 -6z m-2517 -45 c4 -8 3 -16 -1
-17 -16 -7 -606 8 -592 14 23 11 87 14 346 16 205 2 243 0 247 -13z m-1116
-102 c-2 -16 -4 -5 -4 22 0 28 2 40 4 28 2 -13 2 -35 0 -50z m20 -10 c-2 -16
-4 -3 -4 27 0 30 2 43 4 28 2 -16 2 -40 0 -55z m394 23 c-9 -33 -15 -99 -15
-188 -1 -75 -4 -131 -8 -124 -4 7 -15 46 -24 87 -17 69 -18 72 -24 39 l-6 -35
-6 45 c-7 47 4 159 21 201 7 19 16 24 43 25 l34 0 -15 -50z m707 19 c2 -2 -6
-13 -17 -24 -18 -18 -19 -24 -9 -41 7 -11 20 -19 28 -17 11 1 15 -7 14 -35 -1
-27 2 -35 12 -31 8 3 14 1 14 -5 0 -13 -20 -20 -42 -14 -22 5 -23 16 -2 36 8
9 14 22 11 29 -2 7 -9 2 -17 -13 -16 -30 -127 -140 -141 -140 -6 0 10 19 35
43 34 31 43 46 36 57 -8 12 -12 11 -30 -7 -20 -22 -47 -22 -62 1 -5 7 -8 7 -8
-1 0 -8 -14 -13 -36 -13 -30 0 -34 3 -25 14 9 11 6 14 -14 14 -13 0 -30 -7
-36 -14 -6 -8 -22 -14 -35 -14 -13 0 -24 -4 -24 -10 0 -5 5 -10 11 -10 5 0 7
-4 4 -10 -8 -13 1 -13 26 0 10 6 19 8 19 6 0 -3 -10 -11 -22 -17 -18 -10 -24
-8 -34 6 -13 17 -15 17 -33 -6 -14 -17 -16 -26 -8 -32 7 -5 1 -5 -12 -2 -13 4
-21 3 -18 -2 3 -5 -3 -14 -14 -21 -29 -18 -23 -5 19 39 51 56 57 69 29 61 -24
-6 -41 -20 -48 -39 -2 -8 -9 -9 -17 -4 -11 6 -8 14 12 34 14 14 26 32 26 39 0
7 -12 0 -26 -16 -22 -24 -29 -27 -48 -18 -18 8 -27 7 -41 -6 -13 -13 -19 -14
-22 -4 -3 6 -17 12 -32 12 -20 0 -31 -7 -39 -25 -17 -37 -54 -31 -60 10 -2 19
-1 19 17 -2 10 -13 23 -23 27 -23 4 0 4 3 1 7 -4 3 4 21 18 39 14 18 25 36 25
41 0 4 -7 0 -15 -11 -7 -10 -18 -15 -24 -12 -5 4 -11 -4 -13 -16 -3 -20 -6
-19 -22 14 -18 38 -17 72 6 131 10 26 28 37 28 17 0 -5 5 -10 11 -10 5 0 7 5
4 10 -4 7 62 10 200 10 114 -1 208 0 210 2 4 4 199 -3 203 -7z m-2 -51 c-4 -9
-9 -15 -11 -12 -3 3 -3 13 1 22 4 9 9 15 11 12 3 -3 3 -13 -1 -22z m1415 -106
c45 -53 54 -76 11 -26 -50 57 -102 129 -102 140 0 6 12 -7 26 -28 14 -21 44
-60 65 -86z m1169 63 c0 -6 -4 -13 -10 -16 -5 -3 -10 1 -10 9 0 9 5 16 10 16
6 0 10 -4 10 -9z m2280 -201 c5 9 8 5 8 -11 2 -67 10 -119 21 -133 9 -10 9
-16 3 -16 -25 0 -64 212 -60 330 0 25 5 -6 11 -69 5 -63 13 -108 17 -101z
m-3665 181 c-27 -5 -30 -10 -33 -49 l-3 -42 114 0 c85 0 118 -4 133 -15 17
-13 16 -14 -15 -4 -52 18 -187 5 -222 -20 -29 -22 -37 -18 -20 8 6 10 3 19 -9
30 -10 9 -21 34 -25 55 -6 36 -5 38 9 27 10 -8 16 -9 16 -3 0 12 24 20 60 20
21 0 21 -1 -5 -7z m-2285 -266 c20 -162 56 -325 101 -458 77 -228 196 -357
331 -357 48 0 132 45 172 92 39 45 96 156 122 238 28 87 28 40 0 -71 -28 -112
-57 -169 -120 -238 -23 -25 -31 -38 -17 -29 49 34 165 184 202 263 21 44 39
74 39 66 0 -22 -75 -175 -118 -238 -47 -69 -128 -146 -186 -175 -31 -16 -52
-19 -97 -15 -89 8 -105 24 -23 24 53 -1 78 5 109 21 22 13 31 20 20 17 -85
-21 -126 -24 -174 -9 -103 30 -170 104 -235 260 -87 209 -144 481 -151 724 -4
133 -3 138 5 55 5 -49 14 -126 20 -170z m3610 251 c0 -3 -4 -8 -10 -11 -5 -3
-10 -1 -10 4 0 6 5 11 10 11 6 0 10 -2 10 -4z m-1205 -26 c3 -5 1 -10 -4 -10
-6 0 -11 5 -11 10 0 6 2 10 4 10 3 0 8 -4 11 -10z m-1579 -16 c-3 -9 -6 -18
-6 -20 0 -3 -4 -3 -10 1 -11 7 -2 35 12 35 6 0 7 -7 4 -16z m247 -10 c9 -9
-21 -58 -44 -72 -28 -18 -23 3 6 26 16 13 23 26 19 36 -6 16 7 22 19 10z
m1284 0 c-3 -3 -12 -4 -19 -1 -8 3 -5 6 6 6 11 1 17 -2 13 -5z m-1499 -26 c-5
-15 -23 -11 -26 6 -2 11 2 14 13 10 9 -4 14 -11 13 -16z m2802 12 c0 -5 -5
-10 -11 -10 -5 0 -7 5 -4 10 3 6 8 10 11 10 2 0 4 -4 4 -10z m-3151 -46 c-12
-13 -27 -24 -33 -24 -6 0 -5 4 3 9 7 5 10 14 7 20 -4 6 -1 11 7 11 8 0 18 8
22 18 5 12 9 13 12 4 3 -7 -5 -24 -18 -38z m406 36 c3 -5 -1 -10 -10 -10 -9 0
-13 5 -10 10 3 6 8 10 10 10 2 0 7 -4 10 -10z m608 3 c-7 -2 -19 -2 -25 0 -7
3 -2 5 12 5 14 0 19 -2 13 -5z m-722 -41 c-10 -19 -41 -38 -41 -25 0 10 43 54
48 49 2 -2 -1 -13 -7 -24z m-221 8 c0 -5 -4 -10 -9 -10 -6 0 -13 5 -16 10 -3
6 1 10 9 10 9 0 16 -4 16 -10z m43 -3 c3 -7 -3 -13 -13 -13 -10 0 -16 6 -13
13 3 7 9 13 13 13 4 0 10 -6 13 -13z m275 -5 c2 -7 -2 -10 -12 -6 -9 3 -16 11
-16 16 0 13 23 5 28 -10z m222 8 c0 -5 -4 -10 -10 -10 -5 0 -10 5 -10 10 0 6
5 10 10 10 6 0 10 -4 10 -10z m449 -16 c35 -30 40 -66 14 -98 -18 -21 -18 -21
4 -2 32 26 37 50 18 86 -9 18 -14 34 -11 37 6 6 36 -63 36 -82 0 -19 -39 -64
-70 -80 -66 -34 -140 -9 -171 58 -27 60 -24 73 19 90 60 25 125 22 161 -9z
m-1015 -3 c3 -5 -1 -12 -10 -15 -20 -8 -29 -1 -19 13 8 13 22 14 29 2z m316
-6 c7 -8 8 -15 2 -15 -5 0 -15 7 -22 15 -7 8 -8 15 -2 15 5 0 15 -7 22 -15z
m1697 -42 c-3 -10 -5 -2 -5 17 0 19 2 27 5 18 2 -10 2 -26 0 -35z m-2091 9
c-4 -3 -14 2 -24 12 -16 18 -16 18 6 6 13 -6 21 -14 18 -18z m361 6 c-3 -8 -6
-5 -6 6 -1 11 2 17 5 13 3 -3 4 -12 1 -19z m253 12 c0 -5 -4 -10 -10 -10 -5 0
-10 5 -10 10 0 6 5 10 10 10 6 0 10 -4 10 -10z m269 -60 c0 -23 -15 7 -22 45
l-6 30 14 -30 c8 -16 14 -37 14 -45z m-599 46 c0 -2 -8 -10 -17 -17 -16 -13
-17 -12 -4 4 13 16 21 21 21 13z m-416 -56 l7 -25 -15 25 c-9 14 -15 32 -15
40 0 13 1 13 8 0 5 -8 12 -26 15 -40z m331 39 c11 -17 -1 -21 -15 -4 -8 9 -8
15 -2 15 6 0 14 -5 17 -11z m-45 -3 c0 -11 -19 -15 -25 -6 -3 5 1 10 9 10 9 0
16 -2 16 -4z m3717 -43 c-3 -10 -5 -2 -5 17 0 19 2 27 5 18 2 -10 2 -26 0 -35z
m-3957 -48 c0 -5 -5 -3 -10 5 -5 8 -10 20 -10 25 0 6 5 3 10 -5 5 -8 10 -19
10 -25z m5839 -5 c19 -16 32 -33 28 -36 -11 -11 22 -77 55 -111 35 -36 23 -43
-23 -16 -16 10 -27 23 -25 30 3 7 0 12 -6 10 -13 -2 -62 83 -72 126 -8 34 0
34 43 -3z m161 1 c0 -9 7 -25 15 -35 22 -29 18 -39 -10 -34 -14 3 -25 3 -25 1
0 -13 43 -63 50 -58 8 5 65 -63 58 -71 -3 -2 -20 6 -39 18 -34 23 -109 152
-109 188 0 23 60 15 60 -9z m-2680 -58 c0 -16 -4 -22 -11 -17 -7 4 -23 7 -36
8 -12 1 -23 4 -23 9 0 4 0 13 0 20 0 9 11 12 35 9 29 -4 35 -8 35 -29z m-5570
7 l25 -8 -25 -1 c-14 0 -32 4 -40 9 -13 9 -13 10 0 9 8 -1 26 -5 40 -9z m3075
0 c-3 -5 -14 -10 -23 -10 -15 0 -15 -2 -2 -10 10 -7 -94 -9 -305 -7 -295 2
-320 3 -323 20 -3 16 18 17 328 17 218 0 329 -3 325 -10z m4592 -22 c-3 -7 -5
-2 -5 12 0 14 2 19 5 13 2 -7 2 -19 0 -25z m-1440 -25 c-3 -10 -5 -2 -5 17 0
19 2 27 5 18 2 -10 2 -26 0 -35z m-4060 -166 c21 -22 28 -33 15 -25 -13 9 -35
31 -48 49 -27 35 -94 163 -94 176 0 5 20 -30 45 -76 24 -46 61 -102 82 -124z
m134 176 c13 -16 12 -17 -3 -4 -10 7 -18 15 -18 17 0 8 8 3 21 -13z m5451
-233 c47 -93 88 -130 144 -130 43 0 82 34 118 104 31 59 33 61 56 46 13 -8 12
-16 -5 -67 -26 -78 -108 -163 -157 -163 -41 0 -93 41 -137 106 -30 46 -69 157
-90 262 -17 83 -11 85 10 2 10 -41 38 -113 61 -160z m223 186 c22 -3 41 -5 42
-6 1 0 11 -14 23 -30 l21 -30 -35 4 c-41 6 -72 20 -103 49 -27 24 -30 42 -5
28 9 -5 35 -11 57 -15z m-5072 -32 c72 -4 114 -10 105 -15 -16 -11 -278 -12
-413 -1 l-100 7 85 5 c183 11 209 11 323 4z m4387 -37 c0 -35 45 -189 73 -250
34 -75 67 -121 134 -192 32 -32 50 -53 40 -46 -9 8 -20 11 -24 8 -10 -11 -59
21 -93 60 -52 59 -100 175 -126 303 -26 127 -29 154 -14 145 6 -3 10 -16 10
-28z m-3826 -7 c29 -12 75 -39 100 -61 l46 -41 -21 -29 c-24 -35 -99 -185 -99
-200 0 -6 23 20 51 58 79 104 129 152 191 184 32 16 60 29 63 29 4 0 -11 -21
-33 -47 -57 -70 -79 -111 -112 -208 -51 -150 -74 -285 -66 -391 5 -71 3 -92
-6 -91 -7 1 -30 -3 -51 -7 -39 -9 -157 10 -157 24 0 9 36 20 65 20 16 0 17 -2
5 -10 -26 -16 32 -31 74 -18 45 14 47 32 3 24 -44 -8 -50 0 -26 33 17 23 18
31 8 59 -6 18 -9 65 -7 104 l4 71 -21 -29 c-11 -16 -39 -48 -63 -71 -39 -40
-46 -43 -95 -43 -74 0 -123 16 -166 55 -20 19 -50 35 -65 38 -15 2 -32 10 -37
18 -5 9 -9 10 -9 2 0 -6 5 -15 10 -18 6 -4 16 -21 24 -39 7 -18 36 -49 64 -69
67 -50 155 -86 137 -57 -4 6 -10 8 -15 5 -5 -3 -15 1 -23 9 -8 8 -17 13 -20
10 -3 -3 -8 -1 -12 5 -3 7 2 11 14 11 12 0 21 -6 22 -12 0 -7 2 -8 5 -3 4 10
48 11 91 1 15 -3 28 4 44 25 12 16 26 29 32 29 5 0 4 -7 -3 -15 -10 -12 -10
-15 4 -15 9 0 15 -3 15 -7 -4 -25 3 -42 19 -46 37 -9 -44 -31 -113 -31 -57 0
-80 5 -125 28 -85 43 -133 87 -165 154 -17 34 -35 61 -42 61 -8 1 -10 20 -7
64 l5 62 -16 -35 c-53 -113 86 -360 245 -436 33 -15 68 -40 79 -55 l20 -27
-47 12 c-96 26 -168 76 -238 167 -143 186 -205 458 -143 633 23 66 46 89 42
43 0 -12 -4 -71 -8 -132 l-7 -110 43 83 c23 45 58 100 76 122 95 110 283 160
417 110z m-3325 -30 c0 -10 -3 -8 -9 5 -12 27 -12 43 0 25 5 -8 9 -22 9 -30z
m-63 -8 c-16 -2 -35 3 -43 11 -13 13 -10 13 28 3 40 -10 41 -11 15 -14z m2219
-52 c13 -6 15 -9 5 -9 -8 0 -22 4 -30 9 -18 12 -2 12 25 0z m135 1 c0 -18 -58
-33 -87 -23 -27 10 -27 10 12 11 22 1 47 6 55 11 19 12 20 12 20 1z m-147 -28
c-7 -2 -19 -2 -25 0 -7 3 -2 5 12 5 14 0 19 -2 13 -5z m2712 -133 c3 -5 1 -10
-4 -10 -6 0 -11 5 -11 10 0 6 2 10 4 10 3 0 8 -4 11 -10z m2858 -281 c-20 -35
-114 -124 -147 -140 -12 -6 -8 0 9 13 57 44 96 81 107 102 6 11 -12 0 -40 -26
-74 -69 -71 -59 4 17 70 70 96 83 67 34z m-3366 5 c-3 -3 -12 -4 -19 -1 -8 3
-5 6 6 6 11 1 17 -2 13 -5z m215 -64 c10 0 18 -4 18 -10 0 -5 -3 -10 -7 -10
-21 1 -125 38 -135 48 -7 7 14 3 46 -8 33 -11 67 -20 78 -20z m-4006 -77 c66
-92 245 -286 309 -332 19 -14 7 -10 -34 10 -81 42 -145 100 -221 201 -53 69
-138 218 -126 218 2 0 35 -44 72 -97z m2771 75 c-3 -8 -6 -5 -6 6 -1 11 2 17
5 13 3 -3 4 -12 1 -19z m1223 -23 c0 -8 -43 -24 -123 -46 -38 -11 -90 -30
-116 -43 -26 -13 -73 -29 -106 -35 -72 -13 -185 -14 -205 -1 -10 6 20 9 85 8
109 0 163 10 240 47 28 14 86 36 130 49 87 27 95 29 95 21z m371 -53 c-96
-122 -311 -291 -425 -334 -64 -25 -185 -48 -239 -47 l-42 1 35 10 c174 50 274
93 371 159 71 48 304 233 314 250 4 6 9 8 12 5 3 -3 -9 -23 -26 -44z m-1566
-22 c3 -5 1 -10 -4 -10 -6 0 -11 5 -11 10 0 6 2 10 4 10 3 0 8 -4 11 -10z
m4122 4 c-3 -3 -12 -4 -19 -1 -8 3 -5 6 6 6 11 1 17 -2 13 -5z m-3827 -35 c0
-6 -4 -7 -10 -4 -5 3 -10 11 -10 16 0 6 5 7 10 4 6 -3 10 -11 10 -16z m400
-75 c0 -2 -13 2 -30 11 -16 9 -30 18 -30 21 0 2 14 -2 30 -11 17 -9 30 -18 30
-21z m-307 -38 c12 -1 21 -8 19 -15 -1 -7 7 -15 18 -18 11 -3 20 -10 20 -15 0
-6 7 -7 16 -4 8 3 12 2 9 -4 -7 -11 58 -30 106 -30 20 0 57 6 82 14 26 8 45
11 42 6 -10 -16 -97 -32 -152 -28 -71 5 -120 28 -175 80 -24 22 -35 35 -25 28
9 -7 27 -13 40 -14z m412 -26 c-3 -5 -10 -10 -16 -10 -5 0 -9 5 -9 10 0 6 7
10 16 10 8 0 12 -4 9 -10z m-566 -226 c29 -147 40 -220 66 -419 13 -99 23
-166 24 -150 1 17 -8 109 -19 205 -11 96 -25 216 -30 265 -5 50 -13 107 -16
128 l-6 37 71 -41 c39 -22 73 -44 76 -49 2 -4 20 -162 40 -351 62 -612 100
-842 241 -1444 19 -82 51 -220 70 -305 19 -85 40 -172 45 -193 20 -74 2 -47
-54 80 -59 137 -127 327 -127 359 -1 10 -8 30 -16 44 l-15 25 5 -25 c36 -155
69 -575 52 -664 -6 -33 -9 -36 -23 -24 -31 25 -91 115 -131 194 -76 152 -156
443 -180 659 -7 60 -10 -11 -11 -289 -1 -229 -5 -366 -10 -360 -21 21 -53 306
-72 634 -10 171 -10 321 0 735 10 392 10 579 2 760 -16 348 -15 358 18 189z
m-147 79 c41 -48 51 -99 74 -403 24 -322 23 -623 -4 -860 -28 -248 -42 -520
-42 -825 l-1 -240 -58 64 -59 64 -12 142 c-7 78 -11 206 -8 283 2 77 3 140 2
139 -4 -4 -73 -376 -79 -424 -4 -29 -10 -55 -15 -58 -14 -9 -40 71 -55 170
-24 160 -35 459 -25 655 11 201 11 246 0 175 -20 -122 -31 -186 -50 -280 -11
-55 -23 -165 -27 -245 -4 -86 -10 -135 -14 -120 -13 46 -10 281 8 575 17 294
25 321 39 140 l7 -90 10 50 c25 128 8 793 -23 913 -8 30 -7 32 7 21 27 -23
114 -159 143 -223 15 -34 33 -85 40 -114 7 -29 14 -52 16 -50 13 14 -45 391
-69 450 -17 41 -19 39 48 53 26 5 37 0 67 -31 20 -20 49 -61 63 -91 15 -30 29
-53 30 -51 2 2 -7 41 -21 87 -34 119 -31 169 8 124z m470 -240 c25 -27 45 -81
69 -180 49 -210 59 -264 140 -783 31 -200 77 -435 148 -760 23 -101 39 -185
37 -187 -3 -4 -115 238 -146 317 -36 92 -126 386 -169 550 -67 257 -113 595
-127 919 -7 159 -7 163 12 153 11 -6 27 -19 36 -29z m776 -653 c108 -365 230
-659 379 -912 41 -71 73 -131 70 -134 -24 -24 -198 183 -306 364 -44 74 -68
101 -52 60 40 -103 60 -148 113 -253 l60 -120 -35 34 c-20 19 -68 81 -107 139
-38 57 -70 98 -70 91 0 -14 154 -286 201 -356 16 -23 29 -44 29 -48 0 -20
-131 99 -152 139 -9 17 -17 25 -18 19 0 -7 23 -60 52 -118 43 -85 50 -107 39
-117 -19 -19 -47 20 -135 191 -182 353 -339 858 -362 1166 l-6 70 21 -32 c11
-18 54 -105 95 -195 71 -157 245 -518 252 -527 3 -3 9 0 15 6 7 7 -7 69 -45
199 -60 208 -116 425 -140 549 -22 113 -66 390 -65 412 0 10 31 -103 68 -252
38 -148 82 -317 99 -375z m-433 235 c50 -284 177 -768 276 -1044 16 -46 28
-86 26 -88 -6 -6 -99 215 -151 359 -97 268 -152 506 -176 755 -10 105 -12 198
-5 178 3 -5 16 -77 30 -160z m-1260 -1255 l6 -45 -40 45 c-22 25 -43 52 -46
61 -3 9 6 81 20 160 14 79 26 148 26 154 1 5 7 -66 14 -160 7 -93 16 -190 20
-215z"/>
<path d="M7208 8049 c-59 -14 -181 -108 -209 -161 -10 -20 -8 -20 19 5 l30 29
197 5 198 6 -30 -44 c-32 -47 -72 -121 -56 -104 6 6 33 44 61 85 56 81 112
146 152 172 24 16 17 17 -150 16 -96 0 -191 -4 -212 -9z"/>
<path d="M7141 7144 c0 -11 3 -14 6 -6 3 7 2 16 -1 19 -3 4 -6 -2 -5 -13z"/>
<path d="M7121 7044 c0 -11 3 -14 6 -6 3 7 2 16 -1 19 -3 4 -6 -2 -5 -13z"/>
<path d="M7112 6925 c0 -16 2 -22 5 -12 2 9 2 23 0 30 -3 6 -5 -1 -5 -18z"/>
<path d="M7103 6790 c0 -41 2 -58 4 -37 2 20 2 54 0 75 -2 20 -4 3 -4 -38z"/>
<path d="M7040 6440 c0 -10 -36 -12 -186 -7 l-187 5 7 -85 c16 -197 70 -451
136 -638 59 -167 171 -364 263 -459 l49 -51 -39 50 c-40 52 -73 101 -73 109 0
3 8 3 18 0 15 -5 15 -4 -1 9 -17 14 -2 16 149 16 92 1 169 2 170 4 1 1 -22 51
-51 110 -101 205 -170 450 -225 802 -20 126 -30 172 -30 135z m-87 -267 c-7
-2 -21 -2 -30 0 -10 3 -4 5 12 5 17 0 24 -2 18 -5z m2 -103 c17 -11 42 -20 58
-20 15 0 27 -4 27 -9 0 -10 -56 1 -87 18 -31 16 -53 51 -52 81 0 20 3 18 12
-13 7 -22 24 -45 42 -57z m72 28 c-2 -13 -4 -5 -4 17 -1 22 1 32 4 23 2 -10 2
-28 0 -40z m220 -527 l14 -33 -138 4 c-161 5 -166 7 -173 33 -6 19 0 20 85 26
49 3 114 5 144 5 52 -1 55 -2 68 -35z"/>
<path d="M7350 5371 c0 -5 5 -13 10 -16 6 -3 10 -2 10 4 0 5 -4 13 -10 16 -5
3 -10 2 -10 -4z"/>
<path d="M7380 5325 c0 -5 5 -17 10 -25 5 -8 10 -10 10 -5 0 6 -5 17 -10 25
-5 8 -10 11 -10 5z"/>
<path d="M7145 5280 c-39 -7 -38 -7 15 -7 30 -1 84 3 120 7 l65 7 -80 0 c-44
0 -98 -3 -120 -7z"/>
<path d="M7140 5186 c0 -2 8 -10 18 -17 15 -13 16 -12 3 4 -13 16 -21 21 -21
13z"/>
<path d="M7187 5149 c7 -7 15 -10 18 -7 3 3 -2 9 -12 12 -14 6 -15 5 -6 -5z"/>
<path d="M7937 8050 c-71 -12 -129 -45 -182 -101 -26 -28 -45 -52 -43 -55 3
-2 20 4 39 13 26 13 69 18 179 21 l145 4 30 31 c17 18 48 47 70 65 l40 32
-115 -1 c-63 -1 -136 -5 -163 -9z"/>
<path d="M7406 6410 c16 -449 180 -950 385 -1174 112 -123 186 -153 392 -161
173 -6 142 9 -50 24 -192 16 -263 50 -354 173 -40 53 -67 124 -52 138 10 11
275 16 290 7 11 -7 -52 152 -64 163 -4 3 -3 -3 0 -12 6 -16 -2 -18 -86 -18
-99 0 -135 12 -148 47 -8 21 -6 21 101 22 94 1 110 -1 119 -16 17 -29 13 -8
-18 89 -64 200 -101 384 -124 616 l-12 122 -110 4 c-60 2 -145 4 -187 5 l-77
1 -4 38 c-3 20 -3 -10 -1 -68z m303 -334 c7 -9 20 -16 28 -16 12 0 13 12 9 58
-4 40 -3 48 3 27 5 -16 9 -47 10 -68 l1 -37 -32 13 c-38 15 -58 49 -57 92 1
28 2 27 12 -11 7 -23 18 -49 26 -58z"/>
<path d="M8005 5330 l-60 -7 68 -1 c43 -1 66 2 62 8 -3 6 -7 9 -8 8 -1 -1 -29
-4 -62 -8z"/>
<path d="M7823 5313 c9 -2 25 -2 35 0 9 3 1 5 -18 5 -19 0 -27 -2 -17 -5z"/>
<path d="M8058 5153 c18 -2 45 -2 60 0 15 2 0 4 -33 4 -33 0 -45 -2 -27 -4z"/>
<path d="M8405 7945 c-84 -43 -122 -79 -181 -166 -187 -280 -298 -787 -279
-1274 14 -387 66 -651 178 -915 60 -142 164 -297 225 -336 23 -14 21 -11 -9
22 -41 44 -107 140 -137 199 -77 153 -174 541 -197 785 -12 132 -17 161 -32
176 -25 25 -22 328 6 529 26 187 68 375 83 372 6 -1 15 9 19 23 l7 25 1 -28
c1 -15 -3 -35 -8 -45 -10 -16 -34 -138 -47 -234 -4 -34 -10 -45 -20 -41 -11 4
-13 -11 -12 -73 1 -52 -2 -79 -10 -82 -7 -2 -12 -10 -12 -18 0 -9 5 -12 10 -9
6 4 11 -28 12 -87 1 -74 2 -80 5 -28 10 209 68 525 124 678 67 183 127 294
208 387 l36 40 -47 -42 c-26 -24 -52 -43 -56 -43 -28 0 -102 -108 -107 -155
-4 -35 -5 -36 -14 -30 -13 7 8 65 50 141 95 172 223 263 354 252 77 -6 158
-51 240 -133 46 -46 59 -55 37 -28 -86 110 -179 166 -287 171 -65 4 -75 1
-140 -33z m-263 -407 c-6 -6 -15 -8 -19 -3 -5 4 -2 10 5 12 6 3 9 10 6 16 -5
8 -2 8 7 0 10 -10 10 -16 1 -25z m-55 -130 c-3 -7 -5 -2 -5 12 0 14 2 19 5 13
2 -7 2 -19 0 -25z"/>
<path d="M8523 7913 c9 -2 23 -2 30 0 6 3 -1 5 -18 5 -16 0 -22 -2 -12 -5z"/>
<path d="M7997 6643 c-4 -3 -7 -24 -7 -45 0 -21 -4 -38 -10 -38 -16 0 -12 -52
8 -111 11 -30 22 -92 25 -139 10 -134 54 -372 98 -530 50 -176 79 -248 91
-227 8 16 -10 70 -21 63 -3 -2 -7 6 -8 17 -1 12 -15 62 -32 111 -40 117 -75
276 -100 456 -22 150 -40 369 -37 420 2 33 2 33 -7 23z"/>
<path d="M8216 5537 c3 -10 9 -15 12 -12 3 3 0 11 -7 18 -10 9 -11 8 -5 -6z"/>
<path d="M2400 6387 c0 -15 -17 -17 -150 -17 l-151 0 5 -32 c3 -18 13 -84 21
-145 51 -381 200 -774 353 -932 57 -58 58 -54 4 15 -18 22 -36 55 -41 72 -9
31 -9 32 23 32 18 0 74 3 124 6 l90 7 21 -42 c12 -22 23 -41 26 -41 5 0 -24
61 -79 170 -104 203 -180 477 -221 794 -14 107 -25 158 -25 113z m45 -405 c6
-22 6 -23 -47 -16 -69 9 -74 14 -12 14 35 0 45 3 34 10 -11 7 -11 10 -2 10 8
0 10 5 6 13 -5 8 -4 9 3 2 6 -5 14 -20 18 -33z m-165 -2 c0 -5 -2 -10 -4 -10
-3 0 -8 5 -11 10 -3 6 -1 10 4 10 6 0 11 -4 11 -10z"/>
<path d="M2458 5363 c7 -3 16 -2 19 1 4 3 -2 6 -13 5 -11 0 -14 -3 -6 -6z"/>
<path d="M2507 5268 c6 -10 157 -9 208 1 28 6 1 8 -87 7 -69 0 -124 -4 -121
-8z"/>
<path d="M2888 5113 c7 -3 16 -2 19 1 4 3 -2 6 -13 5 -11 0 -14 -3 -6 -6z"/>
<path d="M2695 5089 c19 -12 195 -27 185 -16 -3 3 -41 8 -85 12 -44 3 -89 9
-100 11 l-20 5 20 -12z"/>
<path d="M1956 7245 c-9 -26 -7 -32 5 -12 6 10 9 21 6 23 -2 3 -7 -2 -11 -11z"/>
<path d="M1911 7104 c0 -11 3 -14 6 -6 3 7 2 16 -1 19 -3 4 -6 -2 -5 -13z"/>
<path d="M1891 7004 c0 -11 3 -14 6 -6 3 7 2 16 -1 19 -3 4 -6 -2 -5 -13z"/>
<path d="M1881 6944 c0 -11 3 -14 6 -6 3 7 2 16 -1 19 -3 4 -6 -2 -5 -13z"/>
<path d="M1873 6865 c0 -22 2 -30 4 -17 2 12 2 30 0 40 -3 9 -5 -1 -4 -23z"/>
<path d="M1520 6323 c1 -160 88 -525 169 -707 55 -126 206 -356 265 -405 26
-22 18 1 -14 38 -21 25 -26 37 -18 42 9 6 5 11 -12 17 -19 7 4 11 97 17 l121
7 -58 116 c-61 118 -109 238 -154 377 -37 119 -52 183 -81 359 -14 88 -28 162
-30 166 -2 3 -67 7 -144 9 l-141 3 0 -39z m251 -357 c19 -4 35 -2 39 4 4 7 12
5 21 -6 13 -16 10 -17 -41 -10 -59 8 -80 19 -80 44 0 13 3 12 15 -4 8 -12 29
-24 46 -28z m249 -472 c0 -2 -44 -3 -97 -2 l-98 2 88 3 c64 3 87 7 84 16 -3 8
-31 11 -93 10 l-89 -2 75 10 c41 5 82 10 90 12 12 2 40 -32 40 -49z"/>
<path d="M1902 6265 c0 -16 2 -22 5 -12 2 9 2 23 0 30 -3 6 -5 -1 -5 -18z"/>
<path d="M1910 6203 c0 -86 74 -371 142 -543 36 -92 89 -203 94 -197 2 2 -14
44 -37 93 -61 131 -135 365 -165 521 -25 135 -34 167 -34 126z"/>
<path d="M2191 5372 c24 -46 51 -88 61 -93 9 -5 -8 30 -38 78 -71 113 -77 117
-23 15z"/>
<path d="M2030 5250 l-75 -6 80 -1 c44 -1 91 3 105 7 24 8 24 8 -5 7 -16 0
-64 -3 -105 -7z"/>
<path d="M2325 5190 c10 -11 20 -20 23 -20 3 0 -3 9 -13 20 -10 11 -20 20 -23
20 -3 0 3 -9 13 -20z"/>
<path d="M2390 5116 c0 -2 8 -10 18 -17 15 -13 16 -12 3 4 -13 16 -21 21 -21
13z"/>
<path d="M2263 5093 c9 -2 23 -2 30 0 6 3 -1 5 -18 5 -16 0 -22 -2 -12 -5z"/>
<path d="M2991 7765 c-77 -57 -139 -140 -207 -280 -182 -377 -237 -844 -155
-1325 42 -246 84 -390 162 -555 32 -67 136 -235 146 -235 5 0 -3 14 -29 52
-10 14 -18 28 -18 31 0 12 31 -1 46 -19 11 -14 11 -11 -2 13 -10 18 -22 29
-27 26 -6 -3 -7 -1 -3 5 3 6 -13 51 -37 99 -79 158 -153 427 -178 643 -18 166
-16 574 4 699 23 140 70 331 101 414 31 83 111 238 144 281 16 21 13 19 -11
-6 -19 -21 -36 -38 -39 -38 -9 0 -5 35 6 49 9 12 8 13 -3 7 -9 -6 -12 -4 -9 5
3 8 10 14 16 14 6 0 17 7 24 15 11 12 11 12 -4 1 -10 -7 -18 -9 -18 -4 0 11
102 110 140 135 14 9 22 17 19 17 -4 1 -34 -19 -68 -44z m-374 -1032 c-3 -10
-5 -4 -5 12 0 17 2 24 5 18 2 -7 2 -21 0 -30z m0 -325 c-2 -13 -4 -3 -4 22 0
25 2 35 4 23 2 -13 2 -33 0 -45z m20 5 c-3 -10 -5 -4 -5 12 0 17 2 24 5 18 2
-7 2 -21 0 -30z m199 -845 c10 -18 23 -37 30 -43 7 -5 16 -23 19 -40 l7 -30
-25 36 c-25 35 -60 109 -52 109 3 0 12 -15 21 -32z"/>
<path d="M2969 7663 c-13 -16 -12 -17 4 -4 9 7 17 15 17 17 0 8 -8 3 -21 -13z"/>
<path d="M3610 7415 c0 -5 5 -17 10 -25 5 -8 10 -10 10 -5 0 6 -5 17 -10 25
-5 8 -10 11 -10 5z"/>
<path d="M8700 7653 c13 -18 25 -33 27 -33 8 0 -17 38 -33 51 -11 9 -9 2 6
-18z"/>
<path d="M8771 7535 c0 -5 6 -21 14 -35 8 -14 14 -20 14 -15 0 6 -6 21 -14 35
-8 14 -14 21 -14 15z"/>
<path d="M3290 7587 c0 -3 12 -12 26 -22 15 -9 23 -12 20 -6 -7 11 -46 35 -46
28z"/>
<path d="M3612 6925 c0 -16 2 -22 5 -12 2 9 2 23 0 30 -3 6 -5 -1 -5 -18z"/>
<path d="M5402 7453 c26 -8 64 -29 83 -47 37 -36 41 -36 24 -5 -12 23 -104 69
-134 68 -11 -1 1 -8 27 -16z"/>
<path d="M4950 6704 c0 -12 3 -14 13 -6 7 6 53 13 103 15 l89 3 -102 2 c-89 2
-103 0 -103 -14z"/>
<path d="M5968 7373 c6 -2 18 -2 25 0 6 3 1 5 -13 5 -14 0 -19 -2 -12 -5z"/>
<path d="M6049 7133 c-14 -27 -35 -53 -48 -59 l-22 -12 28 -7 c23 -5 32 -2 50
22 13 15 23 35 23 43 0 8 -9 0 -20 -17 -31 -52 -32 -38 -1 22 16 30 26 55 22
55 -3 0 -18 -21 -32 -47z"/>
<path d="M4698 7383 c7 -3 16 -2 19 1 4 3 -2 6 -13 5 -11 0 -14 -3 -6 -6z"/>
<path d="M4825 7382 c6 -5 19 -12 30 -14 12 -2 21 -13 23 -26 4 -27 18 -29 25
-3 5 20 -13 33 -63 46 -17 5 -22 4 -15 -3z"/>
<path d="M4858 7303 c6 -2 18 -2 25 0 6 3 1 5 -13 5 -14 0 -19 -2 -12 -5z"/>
<path d="M4771 6704 c0 -11 3 -14 6 -6 3 7 2 16 -1 19 -3 4 -6 -2 -5 -13z"/>
<path d="M4660 6699 c-182 -28 -190 -30 -190 -52 0 -12 5 -38 10 -59 8 -28 14
-35 29 -31 16 4 21 -6 34 -66 22 -97 63 -180 94 -192 34 -13 35 -12 8 17 -35
37 -65 100 -65 134 0 30 0 30 58 30 31 0 68 3 82 7 l25 6 -25 -23 -25 -22 52
7 c29 4 59 2 70 -3 18 -10 18 -6 -3 80 -13 49 -24 92 -26 94 -3 2 -29 0 -59
-5 -30 -5 -95 -12 -145 -16 -90 -7 -91 -7 -97 16 -4 13 -3 27 1 31 4 4 57 15
117 24 61 9 117 20 125 25 19 11 9 10 -70 -2z m77 -135 c-3 -3 -12 -4 -19 -1
-8 3 -5 6 6 6 11 1 17 -2 13 -5z m-44 -11 c-7 -2 -21 -2 -30 0 -10 3 -4 5 12
5 17 0 24 -2 18 -5z m-93 -13 c-25 -4 -49 -4 -54 1 -6 5 12 8 45 8 l54 -2 -45
-7z"/>
<path d="M4557 6351 c3 -11 11 -22 18 -24 10 -4 10 0 1 19 -13 29 -26 32 -19
5z"/>
<path d="M1263 6484 c-3 -9 -8 -11 -12 -6 -3 6 -19 8 -35 5 -24 -5 -27 -9 -23
-32 3 -15 2 -33 -4 -41 -5 -8 -9 -10 -10 -5 -4 47 -8 58 -21 71 -14 14 -15 14
-12 -8 2 -12 10 -89 19 -169 28 -260 77 -416 172 -545 62 -84 73 -82 17 4
l-45 67 56 3 c30 2 55 6 55 10 0 4 -7 27 -16 52 -41 115 -57 199 -98 510 -12
94 -14 99 -16 50 l-2 -55 -8 40 c-4 22 -5 45 -3 52 3 7 2 13 -1 13 -4 0 -9 -7
-13 -16z m-36 -100 c-3 -3 -12 -4 -19 -1 -8 3 -5 6 6 6 11 1 17 -2 13 -5z m40
0 c-3 -3 -12 -4 -19 -1 -8 3 -5 6 6 6 11 1 17 -2 13 -5z"/>
<path d="M8599 7344 c-31 -16 -66 -68 -102 -153 -30 -70 -30 -95 -1 -35 27 54
104 96 104 57 0 -21 12 -8 28 29 10 24 9 26 -6 22 -13 -5 -13 -2 3 11 75 60
75 61 28 74 -20 6 -37 4 -54 -5z"/>
<path d="M8373 6587 c-2 -4 -9 -4 -15 -1 -8 5 -9 -31 -5 -127 11 -220 47 -404
102 -524 47 -102 58 -113 133 -117 34 -2 62 -1 62 3 0 4 -13 37 -30 74 -74
164 -140 476 -140 658 l0 43 -51 0 c-28 -1 -53 -4 -56 -9z"/>
<path d="M8251 7144 c0 -11 3 -14 6 -6 3 7 2 16 -1 19 -3 4 -6 -2 -5 -13z"/>
<path d="M8236 7094 c-4 -14 -5 -28 -3 -31 3 -2 8 8 11 23 4 14 5 28 3 31 -3
2 -8 -8 -11 -23z"/>
<path d="M8211 6974 c0 -11 3 -14 6 -6 3 7 2 16 -1 19 -3 4 -6 -2 -5 -13z"/>
<path d="M8201 6904 c0 -11 3 -14 6 -6 3 7 2 16 -1 19 -3 4 -6 -2 -5 -13z"/>
<path d="M8192 6805 c0 -16 2 -22 5 -12 2 9 2 23 0 30 -3 6 -5 -1 -5 -18z"/>
<path d="M4157 6665 c-37 -7 -70 -15 -74 -19 -13 -13 75 -4 127 14 63 21 45
23 -53 5z"/>
<path d="M6113 6861 l22 -39 -35 -49 c-19 -26 -27 -42 -17 -34 50 40 71 130
35 152 -25 16 -26 9 -5 -30z"/>
<path d="M6150 6838 c0 -7 5 -20 10 -28 8 -12 10 -11 10 7 0 12 -4 25 -10 28
-5 3 -10 0 -10 -7z"/>
<path d="M5404 6682 c15 -25 137 -83 193 -93 32 -5 74 -12 93 -15 68 -11 23 5
-70 26 -97 21 -122 31 -187 71 -20 13 -33 18 -29 11z"/>
<path d="M5950 6598 c-14 -5 -70 -13 -125 -18 l-100 -7 78 -2 c78 -1 162 14
173 30 6 11 6 11 -26 -3z"/>
<path d="M5490 6575 c0 -7 61 -37 66 -33 2 3 -12 12 -31 21 -19 9 -35 15 -35
12z"/>
<path d="M6103 6545 c-3 -9 -3 -51 0 -93 15 -200 16 -217 8 -187 -8 28 -9 26
-10 -17 -1 -53 14 -102 29 -93 5 3 10 -2 10 -12 0 -10 3 -29 6 -43 l5 -25 -14
24 c-13 21 -15 22 -21 6 -4 -12 1 -26 13 -39 21 -24 61 -87 61 -98 0 -16 -18
-7 -23 11 -7 26 -91 67 -152 74 -39 4 -46 3 -35 -6 8 -7 21 -24 29 -38 7 -15
23 -32 35 -38 12 -7 26 -22 31 -34 7 -16 20 -23 47 -25 32 -3 43 2 73 32 19
19 35 44 35 55 0 11 -11 66 -25 123 -35 144 -65 321 -65 384 0 42 -3 54 -15
54 -9 0 -18 -7 -22 -15z m-15 -529 c8 -9 -62 5 -72 15 -5 4 8 4 29 -1 20 -4
39 -11 43 -14z"/>
<path d="M6023 6140 c48 -26 61 -26 22 0 -16 11 -37 20 -45 20 -8 0 2 -9 23
-20z"/>
<path d="M5992 5947 c32 -20 78 -67 78 -79 0 -13 -65 -5 -94 13 -20 11 -36 19
-36 16 0 -12 74 -47 100 -47 31 0 48 -15 28 -24 -7 -3 -2 -3 12 0 43 10 44 21
6 55 -20 17 -34 34 -32 37 6 5 -77 52 -91 52 -4 0 9 -11 29 -23z"/>
<path d="M5698 5773 c7 -3 16 -2 19 1 4 3 -2 6 -13 5 -11 0 -14 -3 -6 -6z"/>
<path d="M5725 5759 c-4 -6 -5 -11 -4 -13 36 -24 62 -37 66 -33 3 3 -10 13
-28 22 -24 13 -29 19 -18 26 9 6 10 9 2 9 -6 0 -15 -5 -18 -11z"/>
<path d="M5780 5750 c34 -11 60 -11 35 0 -11 5 -29 8 -40 8 -16 0 -15 -2 5 -8z"/>
<path d="M5975 5740 c-3 -5 -2 -10 4 -10 5 0 13 5 16 10 3 6 2 10 -4 10 -5 0
-13 -4 -16 -10z"/>
<path d="M5858 5733 c7 -3 16 -2 19 1 4 3 -2 6 -13 5 -11 0 -14 -3 -6 -6z"/>
<path d="M5606 5688 c3 -4 17 -8 32 -8 42 0 76 -11 62 -20 -38 -24 42 -39 119
-24 l32 7 -28 15 c-30 16 -225 43 -217 30z m195 -36 c-7 -2 -18 1 -23 6 -8 8
-4 9 13 5 13 -4 18 -8 10 -11z"/>
<path d="M5555 5661 c33 -32 92 -60 114 -54 30 8 26 26 -4 21 -13 -3 -22 -1
-19 3 3 5 -6 9 -19 9 -14 0 -31 8 -38 17 -10 11 -10 14 -1 9 6 -4 12 -2 12 3
0 6 -14 11 -32 11 -32 0 -32 0 -13 -19z"/>
<path d="M5408 5633 c6 -2 18 -2 25 0 6 3 1 5 -13 5 -14 0 -19 -2 -12 -5z"/>
<path d="M5430 5599 c42 -34 67 -42 30 -10 -19 17 -39 30 -45 31 -5 0 1 -9 15
-21z"/>
<path d="M5556 5575 c18 -14 18 -14 -6 -15 -23 -1 -23 -2 -5 -10 26 -11 68
-12 61 -2 -2 4 11 6 31 4 22 -3 33 -1 30 6 -7 10 -83 32 -113 32 -16 0 -16 -1
2 -15z"/>
<path d="M4801 5435 c0 -5 21 -32 46 -60 25 -27 41 -41 35 -30 -18 30 -82 101
-81 90z"/>
<path d="M9473 6910 c-100 -40 -132 -366 -58 -597 44 -140 94 -175 154 -108
52 60 76 157 76 315 0 141 -11 204 -48 272 -23 43 -35 49 -73 39 -61 -16 -92
-109 -103 -306 l-6 -130 -8 71 c-8 72 10 228 33 289 6 15 9 30 6 32 -2 2 -11
-15 -20 -39 -15 -40 -15 -41 -10 -8 9 49 42 125 65 146 11 10 27 14 41 11 22
-6 22 -5 4 8 -22 17 -23 17 -53 5z m46 -634 c-11 -20 -26 -36 -31 -36 -6 0 1
15 16 34 14 19 26 41 27 48 0 8 2 9 5 2 3 -6 -5 -28 -17 -48z m68 1 c-8 -19
-19 -37 -24 -40 -5 -3 0 14 11 38 24 51 34 53 13 2z m-47 -72 c-7 -9 -15 -13
-19 -10 -3 3 1 10 9 15 21 14 24 12 10 -5z"/>
<path d="M9272 6562 c-18 -6 -15 -156 3 -227 16 -63 61 -145 83 -153 7 -2 12
0 11 5 -3 20 2 25 16 13 19 -16 19 -2 -1 46 -22 52 -43 175 -44 250 0 60 -1
62 -28 66 -16 2 -34 2 -40 0z"/>
<path d="M9121 6556 c12 -10 59 -15 59 -6 0 5 -14 10 -32 10 -17 0 -29 -2 -27
-4z"/>
<path d="M8845 6930 c-3 -6 1 -7 9 -4 18 7 21 14 7 14 -6 0 -13 -4 -16 -10z"/>
<path d="M8797 6881 c-9 -16 -17 -33 -17 -38 0 -4 9 7 21 26 11 18 18 35 17
37 -2 2 -12 -10 -21 -25z"/>
<path d="M941 6831 c-8 -5 -9 -11 -3 -15 5 -3 12 1 16 9 6 17 6 18 -13 6z"/>
<path d="M6432 6640 c0 -14 2 -19 5 -12 2 6 2 18 0 25 -3 6 -5 1 -5 -13z"/>
<path d="M3156 6695 c-9 -26 -7 -32 5 -12 6 10 9 21 6 23 -2 3 -7 -2 -11 -11z"/>
<path d="M3115 6670 c-3 -5 -1 -10 4 -10 6 0 11 5 11 10 0 6 -2 10 -4 10 -3 0
-8 -4 -11 -10z"/>
<path d="M3300 6665 c7 -8 16 -15 21 -15 5 0 6 7 3 15 -4 8 -13 15 -21 15 -13
0 -13 -3 -3 -15z"/>
<path d="M3440 6670 c20 -13 33 -13 25 0 -3 6 -14 10 -23 10 -15 0 -15 -2 -2
-10z"/>
<path d="M3550 6670 c0 -5 5 -10 11 -10 5 0 7 5 4 10 -3 6 -8 10 -11 10 -2 0
-4 -4 -4 -10z"/>
<path d="M3610 6670 c0 -5 5 -10 10 -10 6 0 10 5 10 10 0 6 -4 10 -10 10 -5 0
-10 -4 -10 -10z"/>
<path d="M3725 6670 c3 -5 10 -10 16 -10 5 0 9 5 9 10 0 6 -7 10 -16 10 -8 0
-12 -4 -9 -10z"/>
<path d="M3545 6549 c-4 -6 -5 -12 -2 -15 2 -3 7 2 10 11 7 17 1 20 -8 4z"/>
<path d="M3747 6539 c-4 -16 -3 -18 9 -8 7 6 11 15 8 20 -8 13 -11 11 -17 -12z"/>
<path d="M3331 6531 c-10 -6 -10 -10 -1 -16 7 -4 19 0 28 9 14 13 14 16 2 16
-8 0 -21 -4 -29 -9z"/>
<path d="M9136 6277 c3 -10 9 -15 12 -12 3 3 0 11 -7 18 -10 9 -11 8 -5 -6z"/>
<path d="M8290 5784 c0 -12 51 -98 74 -122 11 -13 35 -33 51 -44 l30 -20 -31
29 c-17 15 -52 59 -78 96 -25 38 -46 65 -46 61z"/>
<path d="M4231 6076 c2 -2 31 -6 64 -9 36 -3 52 -2 40 3 -19 8 -113 14 -104 6z"/>
<path d="M4200 6059 c12 -9 10 -10 -8 -6 -12 3 -20 1 -16 -4 3 -5 1 -9 -5 -9
-5 0 -17 -3 -27 -7 -13 -5 -15 -3 -9 7 5 8 -7 4 -26 -8 -19 -11 -47 -27 -64
-35 -16 -8 -39 -25 -50 -37 l-20 -23 35 19 c19 10 44 25 55 34 11 8 -5 -13
-36 -45 -61 -65 -113 -147 -106 -167 2 -7 12 3 22 22 23 46 108 152 146 184
41 35 159 70 207 62 24 -4 30 -3 17 3 -33 14 -133 22 -115 10z m-86 -44 c-10
-8 -23 -14 -29 -14 -5 0 -1 6 9 14 11 8 24 15 30 15 5 0 1 -7 -10 -15z"/>
<path d="M4395 6016 c11 -8 31 -16 44 -16 14 0 33 -7 43 -17 10 -9 18 -11 18
-6 0 16 -25 34 -57 39 -15 3 -37 7 -48 10 l-20 6 20 -16z"/>
<path d="M3959 5913 c-13 -16 -12 -17 4 -4 9 7 17 15 17 17 0 8 -8 3 -21 -13z"/>
<path d="M4010 5864 c-11 -27 -13 -51 -5 -42 8 8 25 68 19 68 -2 0 -9 -12 -14
-26z"/>
<path d="M3991 5774 c0 -11 3 -14 6 -6 3 7 2 16 -1 19 -3 4 -6 -2 -5 -13z"/>
<path d="M4230 5350 c-11 -7 0 -10 38 -10 28 0 52 5 52 10 0 13 -70 13 -90 0z"/>
<path d="M4185 5180 c27 -12 43 -12 25 0 -8 5 -22 9 -30 9 -10 0 -8 -3 5 -9z"/>
<path d="M4801 3164 c0 -11 3 -14 6 -6 3 7 2 16 -1 19 -3 4 -6 -2 -5 -13z"/>
<path d="M4992 3115 c0 -38 3 -149 7 -245 4 -96 5 -207 2 -246 -5 -59 -4 -71
8 -66 10 4 13 0 9 -16 -4 -12 -1 -25 4 -29 7 -4 8 -1 3 7 -5 9 -4 11 4 6 6 -4
9 -12 6 -17 -4 -5 -2 -16 3 -25 28 -50 18 318 -14 511 -9 55 -20 120 -24 145
-7 42 -7 40 -8 -25z m25 -157 c-3 -7 -5 -2 -5 12 0 14 2 19 5 13 2 -7 2 -19 0
-25z"/>
<path d="M4816 3100 c4 -19 11 -44 15 -55 6 -14 7 -9 3 15 -4 19 -11 44 -15
55 -6 14 -7 9 -3 -15z"/>
<path d="M4841 3010 c0 -8 4 -24 9 -35 5 -13 9 -14 9 -5 0 8 -4 24 -9 35 -5
13 -9 14 -9 5z"/>
<path d="M4861 2945 c-1 -15 50 -167 55 -162 2 2 -9 41 -25 88 -16 46 -30 80
-30 74z"/>
<path d="M4921 2765 c1 -19 18 -51 18 -35 0 8 -4 22 -9 30 -5 8 -9 11 -9 5z"/>
<path d="M4182 3870 c0 -19 2 -27 5 -17 2 9 2 25 0 35 -3 9 -5 1 -5 -18z"/>
<path d="M4182 3790 c0 -14 2 -19 5 -12 2 6 2 18 0 25 -3 6 -5 1 -5 -13z"/>
<path d="M4242 3490 c0 -19 2 -27 5 -17 2 9 2 25 0 35 -3 9 -5 1 -5 -18z"/>
<path d="M5052 4320 c0 -14 2 -19 5 -12 2 6 2 18 0 25 -3 6 -5 1 -5 -13z"/>
<path d="M5062 4240 c0 -14 2 -19 5 -12 2 6 2 18 0 25 -3 6 -5 1 -5 -13z"/>
<path d="M5072 4180 c0 -14 2 -19 5 -12 2 6 2 18 0 25 -3 6 -5 1 -5 -13z"/>
<path d="M5121 3874 c0 -11 3 -14 6 -6 3 7 2 16 -1 19 -3 4 -6 -2 -5 -13z"/>
<path d="M5511 4240 c0 -8 4 -22 9 -30 12 -18 12 -2 0 25 -6 13 -9 15 -9 5z"/>
<path d="M5521 4188 c-1 -12 200 -612 211 -628 12 -18 20 -45 -77 252 -69 214
-133 393 -134 376z"/>
<path d="M5630 3981 c0 -6 4 -13 10 -16 6 -3 7 1 4 9 -7 18 -14 21 -14 7z"/>
<path d="M5951 3440 c47 -85 47 -85 54 -79 5 5 -66 124 -85 143 -6 6 7 -23 31
-64z"/>
<path d="M5893 3374 c3 -23 53 -110 67 -119 6 -4 -6 24 -27 62 -44 81 -44 82
-40 57z"/>
<path d="M5950 3133 c0 -6 8 -17 18 -24 16 -13 16 -13 2 6 -8 11 -16 22 -17
24 -2 2 -3 0 -3 -6z"/>
<path d="M4835 8000 c-166 -11 -286 -25 -510 -56 -264 -37 -645 -117 -645
-134 0 -7 126 -246 136 -259 2 -2 117 19 256 47 511 103 743 127 1198 126 458
0 760 -31 1138 -116 51 -11 94 -19 95 -17 10 19 127 260 127 263 0 11 -384 79
-564 101 -373 45 -927 65 -1231 45z"/>
<path d="M7774 4778 c-78 -237 -302 -662 -495 -939 -504 -724 -1144 -1278
-2100 -1817 -31 -18 -61 -32 -67 -32 -22 0 -347 203 -517 323 -639 451 -1072
862 -1478 1404 -220 294 -424 652 -555 978 l-48 120 -162 3 -161 2 13 -37 c54
-152 229 -518 341 -713 303 -528 710 -1025 1205 -1473 385 -348 851 -685 1268
-918 l104 -57 146 76 c890 461 1622 1071 2164 1802 270 364 536 845 709 1283
l19 47 -184 0 -184 0 -18 -52z"/>
</g>
</svg>
